<?xml version="1.0" encoding="UTF-8"?>
<svg width="315px" height="128px" viewBox="0 0 315 128" version="1.1" xmlns="http://www.w3.org/2000/svg" xmlns:xlink="http://www.w3.org/1999/xlink">
    <title>Logo</title>
    <g id="Page-1" stroke="none" stroke-width="1" fill="none" fill-rule="evenodd">
        <g id="Link-Checker" transform="translate(-2164.000000, -593.000000)">
            <g id="Group" transform="translate(2164.000000, 593.000000)">
                <g id="Group-4" fill="#7D92F1" fill-rule="nonzero">
                    <g id="query" transform="translate(64.000000, 64.000000) scale(-1, 1) translate(-64.000000, -64.000000) ">
                        <rect id="rect" opacity="0" x="0" y="0" width="128" height="128"></rect>
                        <path d="M126.687628,121.03818 L117.925984,113.001465 C118.225954,110.626697 117.463529,108.151938 115.651206,106.327117 L107.651987,98.3278976 C107.377014,98.0529245 107.077043,97.7904501 106.777072,97.5654721 C115.038766,87.2914755 119.988282,74.2177521 119.988282,59.9941413 C119.988282,26.859877 93.1284054,0 59.9941412,0 C26.8598771,0 0,26.859877 0,59.9941413 C0,93.1284055 26.859877,119.988283 59.9941412,119.988282 C73.2178499,119.988282 85.4416561,115.7137 95.3531881,108.464408 C95.64066,108.876868 95.9656284,109.276828 96.328093,109.651792 L104.327312,117.651011 C105.889659,119.213358 107.939459,120.000781 109.989259,120.000781 C111.026658,120.000781 112.064056,119.800801 113.05146,119.40084 L121.288155,126.950102 C122.050581,127.650034 123.025486,128 123.987892,128 C125.075285,128 126.150181,127.562543 126.937604,126.700127 C128.424958,125.062787 128.324968,122.525535 126.687628,121.03818 Z M59.9941412,111.989064 C52.9698272,111.989064 46.1579924,110.614198 39.7586174,107.901963 C33.5717216,105.289718 28.0097647,101.527585 23.2227321,96.7530515 C18.4481984,91.9785177 14.6985646,86.4165609 12.0738209,80.2171662 C9.3740845,73.83029 7.99921887,67.0184553 7.99921887,59.9941412 C7.99921887,52.9698272 9.37408462,46.1579924 12.0863197,39.7586174 C14.6985646,33.5717216 18.4606972,28.0097647 23.2352309,23.2227321 C28.0097646,18.4481984 33.5717215,14.6985646 39.7711161,12.0738209 C46.1579924,9.3740845 52.9698271,7.99921887 59.9941412,7.99921887 C67.0184554,7.99921887 73.8302901,9.37408462 80.2296651,12.0863197 C86.4165609,14.6985646 91.9785177,18.4606972 96.7655502,23.2352309 C101.540084,28.0097646 105.289718,33.5717215 107.914461,39.7711161 C110.614198,46.1579924 111.989064,52.9698271 111.989064,59.9941412 C111.989064,67.0184554 110.614198,73.8302901 107.901963,80.2296651 C105.277219,86.4165609 101.527585,91.9785177 96.7530515,96.7655502 C91.9785177,101.540084 86.4165609,105.289718 80.2171662,107.914461 C73.83029,110.614198 67.0184553,111.989064 59.9941412,111.989064 Z" id="形状"></path>
                    </g>
                    <g id="broken" transform="translate(44.000000, 37.000000)">
                        <rect id="rect" opacity="0" x="0" y="0" width="50" height="50"></rect>
                        <path d="M11.2485623,31.9535842 C11.4296757,32.1346976 11.5170593,32.365605 11.5170593,32.6404483 C11.5170593,32.9152917 11.4296757,33.1520572 11.2485623,33.3273125 C11.0674489,33.5084259 10.8365415,33.5958095 10.5616981,33.5958095 L0.954875391,33.5958095 C0.680520264,33.5958095 0.443266553,33.5084259 0.268499414,33.3273125 C0.0873859863,33.1461991 2.39257861e-06,32.9152917 2.39257861e-06,32.6404483 C2.39257861e-06,32.3660932 0.0873859863,32.1288395 0.268499414,31.9535842 C0.449612842,31.7724708 0.680520264,31.6850872 0.954875391,31.6850872 L10.5616981,31.6850872 C10.8365415,31.6850872 11.0737952,31.7724708 11.2485623,31.9535842 Z M30.9367152,14.7624534 L23.764428,15.2994474 L15.5679468,7.07221104 C15.0060558,6.51032002 14.3260261,6.23596489 13.5268814,6.23596494 C12.7467755,6.23596494 12.0662577,6.50397378 11.485816,7.04096777 L7.07270166,11.4228389 C6.51081064,11.9847299 6.23645552,12.6525551 6.23645552,13.4390072 C6.23645552,14.238152 6.51081064,14.9250161 7.07270166,15.4800727 L15.2935917,23.7014509 L14.7502514,30.9044932 C14.0511828,30.4802679 13.4892918,30.068247 13.0714128,29.6440218 L2.99642896,19.5568335 C1.31710225,17.8335709 0.480856152,15.7925055 0.480856152,13.4331491 C0.480856152,11.0362032 1.33614116,9.00099585 3.02767227,7.34070806 L7.44078662,2.95883696 C9.10156265,1.29854912 11.1362817,0.468161133 13.5332277,0.468161133 C15.9487244,0.468161133 17.9966242,1.32344614 19.6569121,3.01497725 L29.6757557,13.0709223 C30.0936346,13.5014938 30.5183481,14.0633848 30.9367152,14.7624534 L30.9367152,14.7624534 Z M13.1646545,38.1334088 L5.48710479,45.8241394 C5.26840176,46.0052528 5.03749434,46.0926363 4.80024063,46.0926363 C4.56298691,46.0926363 4.3257332,46.0052527 4.11337651,45.8241394 C3.93226309,45.6244752 3.84487949,45.3935678 3.84487949,45.1372752 C3.84487949,44.8814708 3.93226309,44.644217 4.11337651,44.450411 L11.7914144,36.7660268 C11.9910785,36.5849134 12.2219859,36.498018 12.4782786,36.498018 C12.734083,36.498018 12.9713367,36.5854016 13.1646545,36.7660268 C13.345768,36.9661791 13.4331516,37.1965983 13.4331516,37.452891 C13.4394979,37.7028373 13.3521143,37.940091 13.1646545,38.1334088 Z M18.2402242,39.3631251 L18.2402242,48.9699479 C18.2402242,49.244303 18.1528406,49.4815567 17.9717272,49.6563238 C17.7906138,49.8374373 17.5597064,49.9248208 17.2848631,49.9248208 C17.0100198,49.9248208 16.7732542,49.8374373 16.5979989,49.6563238 C16.4168855,49.4752104 16.329502,49.2447912 16.329502,48.9699479 L16.329502,39.3631251 C16.329502,39.08877 16.4168855,38.8515163 16.5979989,38.6762609 C16.7791124,38.4951475 17.0100198,38.407764 17.2848631,38.407764 C17.5592182,38.407764 17.7964719,38.4951476 17.9717272,38.6762609 C18.1523525,38.8578625 18.2402242,39.08877 18.2402242,39.3631251 Z M49.4512922,36.4858136 C49.4512922,38.8827595 48.5960072,40.9174787 46.9044761,42.5782547 L42.4908735,46.9601257 C40.8305857,48.6204136 38.7953784,49.4508016 36.3984324,49.4508016 C33.9765895,49.4508016 31.9355241,48.5955166 30.2747481,46.9039854 L20.2559044,36.8475523 C19.831191,36.4233271 19.4191702,35.8677823 18.9949449,35.1687138 L26.1672321,34.6258616 L34.3568789,42.8467517 C34.9002191,43.3896038 35.5743907,43.6581008 36.3979442,43.6707934 C37.2219859,43.683486 37.9025038,43.4213353 38.4390097,42.877995 L42.852124,38.4961239 C43.414015,37.9342329 43.6888583,37.2664076 43.6888583,36.4799555 C43.6888583,35.6808107 43.414015,34.9944348 42.852124,34.4388901 L34.6258641,26.1921267 L35.1687162,19.0198395 C35.8677847,19.4440647 36.4296757,19.8560856 36.8475547,20.280799 L46.9288849,30.3621292 C48.6145579,32.09125 49.4512922,34.125969 49.4512922,36.4858136 Z M33.6021582,0.954872998 L33.6021582,10.5616958 C33.6021582,10.8365391 33.5147746,11.0737928 33.3336612,11.2485599 C33.1525478,11.4296733 32.9221285,11.5170569 32.6467971,11.5170569 C32.3724419,11.5170569 32.1351882,11.4296733 31.9604211,11.2485599 C31.7793077,11.0674464 31.6919241,10.836539 31.6919241,10.5616958 L31.6919241,0.954872998 C31.6919241,0.680517871 31.7793077,0.44326416 31.9604211,0.268497021 C32.1415345,0.0873835937 32.3719538,0 32.6467971,0 C32.9216404,0 33.1588941,0.0873835937 33.3336612,0.268497021 C33.5147746,0.449610449 33.6021582,0.674171582 33.6021582,0.954872998 Z M45.8241417,5.48661421 L38.1338994,13.1709984 C37.9156846,13.3521119 37.6847771,13.4390072 37.4475234,13.4390072 C37.2102697,13.4390072 36.973016,13.3516236 36.7606593,13.1709984 C36.5795459,12.9708461 36.4921623,12.7404269 36.4921623,12.4841343 C36.4921623,12.2283299 36.5795459,11.9910761 36.7606593,11.7972701 L44.438209,4.11337407 C44.6378731,3.93226064 44.8687806,3.8448771 45.1250732,3.8448771 C45.3813658,3.8448771 45.6181313,3.93226069 45.8119374,4.11337407 C45.9930508,4.31303818 46.0804344,4.54394561 46.0804344,4.80023823 C46.0862925,5.05604263 45.9989089,5.28695005 45.8241417,5.48661421 Z M49.6631607,16.5916502 C49.8442742,16.7727637 49.9316577,17.0036711 49.9316577,17.2785144 C49.9316577,17.5533577 49.8442741,17.7901232 49.6631607,17.9648903 C49.4820473,18.1460038 49.2511399,18.2333874 48.9762966,18.2333874 L39.3636157,18.2333874 C39.0892606,18.2333874 38.8520069,18.1460038 38.6767516,17.9648903 C38.4956381,17.7842651 38.4082545,17.5533577 38.4082545,17.2785144 C38.4082545,17.0041593 38.4956381,16.7664174 38.6767516,16.5916502 C38.857865,16.4105368 39.0887724,16.3231532 39.3636157,16.3231532 L48.9704384,16.3231532 C49.2511398,16.3231532 49.4820473,16.4105368 49.6631607,16.5916502 Z" id="形状"></path>
                    </g>
                </g>
                <text id="Bad-Link-Checker" font-family="Impact" font-size="48" font-style="condensed" font-weight="700" line-spacing="51" fill="#7E93F1">
                    <tspan x="150" y="59">Bad Link</tspan>
                    <tspan x="150" y="113.5">Checker</tspan>
                </text>
            </g>
        </g>
    </g>
</svg>